<svg xmlns="http://www.w3.org/2000/svg" width="35" height="76" viewBox="0 0 35 76"><linearGradient id="a" gradientUnits="userSpaceOnUse" x1="188" y1="-158.22" x2="188" y2="45.517" gradientTransform="matrix(.08333 0 0 -.1667 1.833 8.108)"><stop offset="0" stop-color="#E1E1E1"/><stop offset="1" stop-color="#FFF"/></linearGradient><circle fill="url(#a)" cx="17.5" cy="17.5" r="17"/><linearGradient id="b" gradientUnits="userSpaceOnUse" x1="188" y1="-158.217" x2="188" y2="45.514" gradientTransform="matrix(.08333 0 0 -.1667 1.833 8.108)"><stop offset="0" stop-color="#606A73"/><stop offset=".042" stop-color="#707980"/><stop offset=".128" stop-color="#8D9398"/><stop offset=".224" stop-color="#A5A9AC"/><stop offset=".333" stop-color="#B7BABB"/><stop offset=".463" stop-color="#C4C5C7"/><stop offset=".633" stop-color="#CCC"/><stop offset="1" stop-color="#CECECE"/></linearGradient><path fill="url(#b)" d="M17.5 35C7.9 35 0 27.1 0 17.5S7.9 0 17.5 0 35 7.9 35 17.5 27.1 35 17.5 35zm0-34C8.4 1 1 8.4 1 17.5S8.4 34 17.5 34 34 26.6 34 17.5 26.6 1 17.5 1z"/><g><path fill="#F08225" d="M27.4 16.9l-.4-.4-8.9-8.9c-.2-.2-.5-.3-.7-.3-.3 0-.5.1-.7.3l-8.9 8.9-.4.4c-.4.4-.4 1 0 1.4.2.2.5.3.7.3.3 0 .5-.1.7-.3l1.8-1.9 6.7-6.8 6.7 6.8 1.8 1.9c.4.4 1 .4 1.4 0 .6-.4.6-1 .2-1.4zm-5.7-.4l-4.3-4.4-4.3 4.4-3.1 3.1v4.8c0 .7.6 1.4 1.3 1.4h4.2v-4.4c0-.7.6-1.3 1.3-1.3H18c.7 0 1.3.6 1.3 1.3v4.4h4.2c.7 0 1.3-.6 1.3-1.4v-4.8l-3.1-3.1z"/></g><g><linearGradient id="c" gradientUnits="userSpaceOnUse" x1="188" y1="-403.368" x2="188" y2="-199.631" gradientTransform="matrix(.08333 0 0 -.1667 1.833 8.25)"><stop offset="0" stop-color="#FFF"/><stop offset="1" stop-color="#CBCACA"/></linearGradient><circle fill="url(#c)" cx="17.5" cy="58.5" r="17"/><path fill="#CECECE" d="M17.5 76C7.9 76 0 68.1 0 58.5S7.9 41 17.5 41 35 48.9 35 58.5 27.1 76 17.5 76zm0-34C8.4 42 1 49.4 1 58.5S8.4 75 17.5 75 34 67.6 34 58.5 26.6 42 17.5 42z"/><g><path fill="#CECECE" d="M17.5 76C7.9 76 0 68.1 0 58.5S7.9 41 17.5 41 35 48.9 35 58.5 27.1 76 17.5 76zm0-34C8.4 42 1 49.4 1 58.5S8.4 75 17.5 75 34 67.6 34 58.5 26.6 42 17.5 42z"/></g><g><path fill="#FFF" d="M17.5 43.1C26.6 43.1 34 50 34 58.5 34 49.4 26.6 42 17.5 42S1 49.4 1 58.5C1 50 8.4 43.1 17.5 43.1z"/></g><g><path fill="#F08225" d="M27.4 57.9l-.4-.4-8.9-8.9c-.2-.2-.5-.3-.7-.3-.3 0-.5.1-.7.3l-8.9 8.9-.4.4c-.4.4-.4 1 0 1.4.2.2.5.3.7.3.3 0 .5-.1.7-.3l1.8-1.9 6.7-6.8 6.7 6.8 1.8 1.9c.4.4 1 .4 1.4 0 .6-.4.6-1 .2-1.4zm-5.7-.4l-4.3-4.4-4.3 4.4-3.1 3.1v4.8c0 .7.6 1.4 1.3 1.4h4.2v-4.4c0-.7.6-1.3 1.3-1.3H18c.7 0 1.3.6 1.3 1.3v4.4h4.2c.7 0 1.3-.6 1.3-1.4v-4.8l-3.1-3.1z"/></g></g></svg>