<?xml version="1.0" encoding="utf-8"?>
<!-- Generator: Adobe Illustrator 18.0.0, SVG Export Plug-In . SVG Version: 6.00 Build 0)  -->
<!DOCTYPE svg PUBLIC "-//W3C//DTD SVG 1.1//EN" "http://www.w3.org/Graphics/SVG/1.1/DTD/svg11.dtd">
<svg version="1.1" id="Layer_1" xmlns="http://www.w3.org/2000/svg" xmlns:xlink="http://www.w3.org/1999/xlink" x="0px" y="0px"
	 viewBox="0 0 144 72" width="1em" height="1em" preserveAspectRatio="none" style="enable-background:new 0 0 144 72;" xml:space="preserve">
<style type="text/css">
	.st0{fill-rule:evenodd;clip-rule:evenodd;fill:url(#SVGID_1_);}
	.st1{fill:#DDDFE1;}
	.st2{fill-rule:evenodd;clip-rule:evenodd;fill:url(#SVGID_2_);}
	.st3{fill-rule:evenodd;clip-rule:evenodd;fill:url(#SVGID_3_);stroke:#D3D3D3;stroke-miterlimit:10;}
	.st4{fill-rule:evenodd;clip-rule:evenodd;fill:url(#SVGID_4_);}
	.st5{fill:#CDCECE;}
	.st6{fill:#FFFFFF;}
	.st7{fill-rule:evenodd;clip-rule:evenodd;fill:url(#SVGID_5_);}
	.st8{fill-rule:evenodd;clip-rule:evenodd;fill:url(#SVGID_6_);}
	.st9{fill-rule:evenodd;clip-rule:evenodd;fill:url(#SVGID_7_);}
	.st10{fill-rule:evenodd;clip-rule:evenodd;fill:url(#SVGID_8_);}
	.st11{fill:url(#SVGID_9_);}
	.st12{fill-rule:evenodd;clip-rule:evenodd;fill:url(#SVGID_10_);}
	.st13{fill:url(#SVGID_11_);}
	.st14{fill-rule:evenodd;clip-rule:evenodd;fill:url(#SVGID_12_);}
	.st15{fill:url(#SVGID_13_);}
	.st16{fill-rule:evenodd;clip-rule:evenodd;fill:url(#SVGID_14_);}
	.st17{fill:url(#SVGID_15_);}
	.st18{fill-rule:evenodd;clip-rule:evenodd;fill:#5F6A72;}
	.st19{fill:url(#SVGID_16_);}
	.st20{fill:#2D2D8C;}
	.st21{fill:url(#SVGID_17_);}
	.st22{fill:url(#SVGID_18_);}
	.st23{fill:url(#SVGID_19_);}
	.st24{fill:url(#SVGID_20_);}
	.st25{fill:url(#SVGID_21_);}
	.st26{fill:url(#SVGID_22_);}
	.st27{fill:url(#SVGID_23_);}
	.st28{fill:url(#SVGID_24_);}
	.st29{fill:url(#SVGID_25_);}
	.st30{fill:url(#SVGID_26_);}
	.st31{fill:url(#SVGID_27_);}
	.st32{fill:url(#SVGID_28_);}
	.st33{fill:url(#SVGID_29_);}
	.st34{fill:url(#SVGID_30_);}
	.st35{fill:url(#SVGID_31_);}
	.st36{fill:url(#SVGID_32_);}
	.st37{fill:url(#SVGID_33_);}
	.st38{fill:url(#SVGID_34_);}
	.st39{fill:url(#SVGID_35_);}
	.st40{fill:url(#SVGID_36_);}
	.st41{fill:url(#SVGID_37_);}
	.st42{fill:url(#SVGID_38_);}
	.st43{fill:url(#SVGID_39_);}
	.st44{fill:url(#SVGID_40_);}
	.st45{fill:url(#SVGID_41_);}
	.st46{fill:url(#SVGID_42_);}
	.st47{fill:url(#SVGID_43_);}
	.st48{fill:url(#SVGID_44_);}
	.st49{fill:url(#SVGID_45_);}
	.st50{fill:url(#SVGID_46_);}
	.st51{fill:url(#SVGID_47_);}
	.st52{fill:url(#SVGID_48_);}
	.st53{fill:url(#SVGID_49_);}
	.st54{fill:url(#SVGID_50_);}
	.st55{fill:url(#SVGID_51_);}
	.st56{fill:url(#SVGID_52_);}
	.st57{fill:url(#SVGID_53_);}
	.st58{fill:url(#SVGID_54_);}
	.st59{fill:url(#SVGID_55_);}
	.st60{fill:url(#SVGID_56_);}
	.st61{fill:#3B6E8F;}
	.st62{fill:#E9D800;}
	.st63{fill-rule:evenodd;clip-rule:evenodd;fill:url(#SVGID_57_);stroke:#CDCECE;stroke-miterlimit:10;}
	.st64{fill:none;stroke:#CDCECE;stroke-miterlimit:10;}
	.st65{fill-rule:evenodd;clip-rule:evenodd;fill:url(#SVGID_58_);stroke:#CDCECE;stroke-miterlimit:10;}
	.st66{fill-rule:evenodd;clip-rule:evenodd;fill:url(#SVGID_59_);stroke:#CDCECE;stroke-miterlimit:10;}
	.st67{fill-rule:evenodd;clip-rule:evenodd;fill:url(#SVGID_60_);stroke:#CDCECE;stroke-miterlimit:10;}
	.st68{fill-rule:evenodd;clip-rule:evenodd;fill:url(#SVGID_61_);}
	.st69{fill:none;stroke:url(#SVGID_62_);stroke-miterlimit:10;}
	.st70{fill-rule:evenodd;clip-rule:evenodd;fill:url(#SVGID_63_);}
	.st71{fill:none;stroke:url(#SVGID_64_);stroke-miterlimit:10;}
	.st72{fill-rule:evenodd;clip-rule:evenodd;fill:url(#SVGID_65_);}
	.st73{fill:none;stroke:url(#SVGID_66_);stroke-miterlimit:10;}
	.st74{fill-rule:evenodd;clip-rule:evenodd;fill:url(#SVGID_67_);}
	.st75{fill:none;stroke:url(#SVGID_68_);stroke-miterlimit:10;}
	.st76{fill:#F87000;}
	.st77{fill-rule:evenodd;clip-rule:evenodd;fill:url(#SVGID_69_);stroke:url(#SVGID_70_);stroke-miterlimit:10;}
	.st78{fill-rule:evenodd;clip-rule:evenodd;fill:url(#SVGID_71_);}
	.st79{fill-rule:evenodd;clip-rule:evenodd;fill:url(#SVGID_72_);}
	.st80{fill-rule:evenodd;clip-rule:evenodd;fill:#FFFFFF;}
	.st81{fill:#9F9F9F;}
	.st82{fill:#DADADA;}
	.st83{fill-rule:evenodd;clip-rule:evenodd;fill:#682145;}
	.st84{fill-rule:evenodd;clip-rule:evenodd;fill:#F87000;}
	.st85{fill-rule:evenodd;clip-rule:evenodd;fill:url(#SVGID_73_);}
	.st86{fill-rule:evenodd;clip-rule:evenodd;fill:url(#SVGID_74_);}
	.st87{fill-rule:evenodd;clip-rule:evenodd;fill:url(#SVGID_75_);}
	.st88{fill-rule:evenodd;clip-rule:evenodd;fill:url(#SVGID_76_);}
	.st89{fill-rule:evenodd;clip-rule:evenodd;fill:#F3F3F3;}
	.st90{fill-rule:evenodd;clip-rule:evenodd;fill:url(#SVGID_77_);}
	.st91{fill-rule:evenodd;clip-rule:evenodd;fill:url(#SVGID_78_);}
	.st92{fill-rule:evenodd;clip-rule:evenodd;fill:#DDDFE1;}
	.st93{fill-rule:evenodd;clip-rule:evenodd;fill:url(#SVGID_79_);}
	.st94{fill-rule:evenodd;clip-rule:evenodd;fill:#00A5B6;}
	.st95{fill-rule:evenodd;clip-rule:evenodd;fill:url(#SVGID_80_);}
	.st96{fill-rule:evenodd;clip-rule:evenodd;fill:url(#SVGID_81_);}
	.st97{fill-rule:evenodd;clip-rule:evenodd;fill:url(#SVGID_82_);}
	.st98{fill-rule:evenodd;clip-rule:evenodd;fill:url(#SVGID_83_);}
	.st99{fill-rule:evenodd;clip-rule:evenodd;fill:url(#SVGID_84_);}
	.st100{fill-rule:evenodd;clip-rule:evenodd;fill:url(#SVGID_85_);}
	.st101{fill-rule:evenodd;clip-rule:evenodd;fill:url(#SVGID_86_);}
	.st102{fill:#DA6800;}
	.st103{fill:#FA9400;}
	.st104{fill-rule:evenodd;clip-rule:evenodd;fill:#DA6800;}
	.st105{fill-rule:evenodd;clip-rule:evenodd;fill:#FA9400;}
	.st106{fill-rule:evenodd;clip-rule:evenodd;fill:url(#SVGID_87_);}
	.st107{fill-rule:evenodd;clip-rule:evenodd;fill:url(#SVGID_88_);}
	.st108{fill:#ADADAD;}
	.st109{fill:#F58220;}
	.st110{fill-rule:evenodd;clip-rule:evenodd;fill:#D3D3D3;}
	.st111{fill:url(#SVGID_89_);}
</style>
<g>
	<g>
		<g>
			<g>
				<linearGradient id="SVGID_1_" gradientUnits="userSpaceOnUse" x1="18.0001" y1="70.4925" x2="18.0001" y2="37.5075">
					<stop  offset="0" style="stop-color:#FFFFFF"/>
					<stop  offset="1" style="stop-color:#CACACA"/>
				</linearGradient>
				<circle class="st0" cx="18" cy="54" r="16.493"/>
				<path class="st5" d="M18,71C8.626,71,1,63.374,1,54s7.626-17,17-17s17,7.626,17,17S27.374,71,18,71z M18,38.015
					C9.186,38.015,2.015,45.186,2.015,54S9.186,69.985,18,69.985S33.985,62.814,33.985,54S26.814,38.015,18,38.015z"/>
			</g>
		</g>
		<g>
			<g>
				<path class="st5" d="M18,71C8.626,71,1,63.374,1,54s7.626-17,17-17s17,7.626,17,17S27.374,71,18,71z M18,38.015
					C9.186,38.015,2.015,45.186,2.015,54S9.186,69.985,18,69.985S33.985,62.814,33.985,54S26.814,38.015,18,38.015z"/>
			</g>
		</g>
	</g>
	<g>
		<path class="st6" d="M18,39.03c8.814,0,15.985,6.715,15.985,14.97c0-8.814-7.171-15.985-15.985-15.985S2.015,45.186,2.015,54
			C2.015,45.745,9.186,39.03,18,39.03z"/>
	</g>
</g>
<g>
	<g>
		<g>
			<g>
				<linearGradient id="SVGID_2_" gradientUnits="userSpaceOnUse" x1="54.0001" y1="70.4925" x2="54.0001" y2="37.5075">
					<stop  offset="0" style="stop-color:#FFFFFF"/>
					<stop  offset="1" style="stop-color:#CACACA"/>
				</linearGradient>
				<circle class="st2" cx="54" cy="54" r="16.493"/>
				<path class="st5" d="M54,71c-9.374,0-17-7.626-17-17s7.626-17,17-17s17,7.626,17,17S63.374,71,54,71z M54,38.015
					c-8.814,0-15.985,7.171-15.985,15.985S45.186,69.985,54,69.985S69.985,62.814,69.985,54S62.814,38.015,54,38.015z"/>
			</g>
		</g>
		<g>
			<g>
				<path class="st5" d="M54,71c-9.374,0-17-7.626-17-17s7.626-17,17-17s17,7.626,17,17S63.374,71,54,71z M54,38.015
					c-8.814,0-15.985,7.171-15.985,15.985S45.186,69.985,54,69.985S69.985,62.814,69.985,54S62.814,38.015,54,38.015z"/>
			</g>
		</g>
	</g>
	<g>
		<path class="st6" d="M54,39.03c8.814,0,15.985,6.715,15.985,14.97c0-8.814-7.171-15.985-15.985-15.985S38.015,45.186,38.015,54
			C38.015,45.745,45.186,39.03,54,39.03z"/>
	</g>
</g>
<g>
	<g>
		<g>
			<g>
				<linearGradient id="SVGID_3_" gradientUnits="userSpaceOnUse" x1="90.0001" y1="70.4925" x2="90.0001" y2="37.5075">
					<stop  offset="0" style="stop-color:#FFFFFF"/>
					<stop  offset="1" style="stop-color:#CACACA"/>
				</linearGradient>
				<circle style="fill-rule:evenodd;clip-rule:evenodd;fill:url(#SVGID_3_);" cx="90" cy="54" r="16.493"/>
				<path class="st5" d="M90,71c-9.374,0-17-7.626-17-17s7.626-17,17-17s17,7.626,17,17S99.374,71,90,71z M90,38.015
					c-8.814,0-15.985,7.171-15.985,15.985S81.186,69.985,90,69.985S105.985,62.814,105.985,54S98.814,38.015,90,38.015z"/>
			</g>
		</g>
		<g>
			<g>
				<path class="st5" d="M90,71c-9.374,0-17-7.626-17-17s7.626-17,17-17s17,7.626,17,17S99.374,71,90,71z M90,38.015
					c-8.814,0-15.985,7.171-15.985,15.985S81.186,69.985,90,69.985S105.985,62.814,105.985,54S98.814,38.015,90,38.015z"/>
			</g>
		</g>
	</g>
	<g>
		<path class="st6" d="M90,39.03c8.814,0,15.985,6.715,15.985,14.97c0-8.814-7.171-15.985-15.985-15.985S74.015,45.186,74.015,54
			C74.015,45.745,81.186,39.03,90,39.03z"/>
	</g>
</g>
<g>
	<g>
		<g>
			<g>
				<linearGradient id="SVGID_4_" gradientUnits="userSpaceOnUse" x1="126.0001" y1="70.4925" x2="126.0001" y2="37.5075">
					<stop  offset="0" style="stop-color:#FFFFFF"/>
					<stop  offset="1" style="stop-color:#CACACA"/>
				</linearGradient>
				<circle class="st4" cx="126" cy="54" r="16.493"/>
				<path class="st5" d="M126,71c-9.374,0-17-7.626-17-17s7.626-17,17-17s17,7.626,17,17S135.374,71,126,71z M126,38.015
					c-8.814,0-15.985,7.171-15.985,15.985S117.186,69.985,126,69.985S141.985,62.814,141.985,54S134.814,38.015,126,38.015z"/>
			</g>
		</g>
		<g>
			<g>
				<path class="st5" d="M126,71c-9.374,0-17-7.626-17-17s7.626-17,17-17s17,7.626,17,17S135.374,71,126,71z M126,38.015
					c-8.814,0-15.985,7.171-15.985,15.985S117.186,69.985,126,69.985S141.985,62.814,141.985,54S134.814,38.015,126,38.015z"/>
			</g>
		</g>
	</g>
	<g>
		<path class="st6" d="M126,39.03c8.814,0,15.985,6.715,15.985,14.97c0-8.814-7.171-15.985-15.985-15.985S110.015,45.186,110.015,54
			C110.015,45.745,117.186,39.03,126,39.03z"/>
	</g>
</g>
<g>
	<g>
		
			<linearGradient id="SVGID_5_" gradientUnits="userSpaceOnUse" x1="18.0001" y1="35.3446" x2="18.0001" y2="2.3595" gradientTransform="matrix(1 0 0 1 0 -0.8519)">
			<stop  offset="0" style="stop-color:#E1E1E1"/>
			<stop  offset="1" style="stop-color:#FFFFFF"/>
		</linearGradient>
		<circle class="st7" cx="18" cy="18" r="16.493"/>
	</g>
	<g>
		<g>
			
				<linearGradient id="SVGID_6_" gradientUnits="userSpaceOnUse" x1="18" y1="35.3444" x2="18" y2="2.3593" gradientTransform="matrix(1 0 0 1 0 -0.8519)">
				<stop  offset="0" style="stop-color:#5F6A72"/>
				<stop  offset="0.0417" style="stop-color:#707980"/>
				<stop  offset="0.1275" style="stop-color:#8D9398"/>
				<stop  offset="0.2238" style="stop-color:#A4A9AC"/>
				<stop  offset="0.3329" style="stop-color:#B7BABB"/>
				<stop  offset="0.4626" style="stop-color:#C3C5C6"/>
				<stop  offset="0.633" style="stop-color:#CBCCCC"/>
				<stop  offset="1" style="stop-color:#CDCECE"/>
			</linearGradient>
			<path style="fill:url(#SVGID_6_);" d="M18,35C8.626,35,1,27.374,1,18S8.626,1,18,1s17,7.626,17,17S27.374,35,18,35z M18,2.015
				C9.186,2.015,2.015,9.186,2.015,18S9.186,33.985,18,33.985S33.985,26.814,33.985,18S26.814,2.015,18,2.015z"/>
		</g>
	</g>
</g>
<g>
	<g>
		
			<linearGradient id="SVGID_7_" gradientUnits="userSpaceOnUse" x1="54.0001" y1="35.3446" x2="54.0001" y2="2.3595" gradientTransform="matrix(1 0 0 1 0 -0.8519)">
			<stop  offset="0" style="stop-color:#E1E1E1"/>
			<stop  offset="1" style="stop-color:#FFFFFF"/>
		</linearGradient>
		<circle class="st9" cx="54" cy="18" r="16.493"/>
	</g>
	<g>
		<g>
			
				<linearGradient id="SVGID_8_" gradientUnits="userSpaceOnUse" x1="54" y1="35.3444" x2="54" y2="2.3593" gradientTransform="matrix(1 0 0 1 0 -0.8519)">
				<stop  offset="0" style="stop-color:#5F6A72"/>
				<stop  offset="0.0417" style="stop-color:#707980"/>
				<stop  offset="0.1275" style="stop-color:#8D9398"/>
				<stop  offset="0.2238" style="stop-color:#A4A9AC"/>
				<stop  offset="0.3329" style="stop-color:#B7BABB"/>
				<stop  offset="0.4626" style="stop-color:#C3C5C6"/>
				<stop  offset="0.633" style="stop-color:#CBCCCC"/>
				<stop  offset="1" style="stop-color:#CDCECE"/>
			</linearGradient>
			<path style="fill:url(#SVGID_8_);" d="M54,35c-9.374,0-17-7.626-17-17S44.626,1,54,1s17,7.626,17,17S63.374,35,54,35z M54,2.015
				c-8.814,0-15.985,7.171-15.985,15.985S45.186,33.985,54,33.985S69.985,26.814,69.985,18S62.814,2.015,54,2.015z"/>
		</g>
	</g>
</g>
<g>
	<g>
		
			<linearGradient id="SVGID_9_" gradientUnits="userSpaceOnUse" x1="90.0001" y1="35.3446" x2="90.0001" y2="2.3595" gradientTransform="matrix(1 0 0 1 0 -0.8519)">
			<stop  offset="0" style="stop-color:#E1E1E1"/>
			<stop  offset="1" style="stop-color:#FFFFFF"/>
		</linearGradient>
		<circle style="fill-rule:evenodd;clip-rule:evenodd;fill:url(#SVGID_9_);" cx="90" cy="18" r="16.493"/>
	</g>
	<g>
		<g>
			
				<linearGradient id="SVGID_10_" gradientUnits="userSpaceOnUse" x1="90" y1="35.3444" x2="90" y2="2.3593" gradientTransform="matrix(1 0 0 1 0 -0.8519)">
				<stop  offset="0" style="stop-color:#5F6A72"/>
				<stop  offset="0.0417" style="stop-color:#707980"/>
				<stop  offset="0.1275" style="stop-color:#8D9398"/>
				<stop  offset="0.2238" style="stop-color:#A4A9AC"/>
				<stop  offset="0.3329" style="stop-color:#B7BABB"/>
				<stop  offset="0.4626" style="stop-color:#C3C5C6"/>
				<stop  offset="0.633" style="stop-color:#CBCCCC"/>
				<stop  offset="1" style="stop-color:#CDCECE"/>
			</linearGradient>
			<path style="fill:url(#SVGID_10_);" d="M90,35c-9.374,0-17-7.626-17-17S80.626,1,90,1s17,7.626,17,17S99.374,35,90,35z M90,2.015
				c-8.814,0-15.985,7.171-15.985,15.985S81.186,33.985,90,33.985S105.985,26.814,105.985,18S98.814,2.015,90,2.015z"/>
		</g>
	</g>
</g>
<g>
	<g>
		
			<linearGradient id="SVGID_11_" gradientUnits="userSpaceOnUse" x1="126.0001" y1="35.3446" x2="126.0001" y2="2.3595" gradientTransform="matrix(1 0 0 1 0 -0.8519)">
			<stop  offset="0" style="stop-color:#E1E1E1"/>
			<stop  offset="1" style="stop-color:#FFFFFF"/>
		</linearGradient>
		<circle style="fill-rule:evenodd;clip-rule:evenodd;fill:url(#SVGID_11_);" cx="126" cy="18" r="16.493"/>
	</g>
	<g>
		<g>
			
				<linearGradient id="SVGID_12_" gradientUnits="userSpaceOnUse" x1="126" y1="35.3444" x2="126" y2="2.3593" gradientTransform="matrix(1 0 0 1 0 -0.8519)">
				<stop  offset="0" style="stop-color:#5F6A72"/>
				<stop  offset="0.0417" style="stop-color:#707980"/>
				<stop  offset="0.1275" style="stop-color:#8D9398"/>
				<stop  offset="0.2238" style="stop-color:#A4A9AC"/>
				<stop  offset="0.3329" style="stop-color:#B7BABB"/>
				<stop  offset="0.4626" style="stop-color:#C3C5C6"/>
				<stop  offset="0.633" style="stop-color:#CBCCCC"/>
				<stop  offset="1" style="stop-color:#CDCECE"/>
			</linearGradient>
			<path style="fill:url(#SVGID_12_);" d="M126,35c-9.374,0-17-7.626-17-17s7.626-17,17-17s17,7.626,17,17S135.374,35,126,35z
				 M126,2.015c-8.814,0-15.985,7.171-15.985,15.985S117.186,33.985,126,33.985S141.985,26.814,141.985,18S134.814,2.015,126,2.015z
				"/>
		</g>
	</g>
</g>
<g>
	<g>
		<path class="st109" d="M27.601,17.38l-0.392-0.395L18.59,8.295c-0.192-0.194-0.445-0.29-0.698-0.29
			c-0.252,0-0.505,0.097-0.696,0.29l-8.621,8.691L8.184,17.38c-0.383,0.386-0.383,1.018,0,1.406
			c0.196,0.197,0.446,0.291,0.697,0.291c0.25,0,0.508-0.094,0.696-0.291l1.785-1.8l6.53-6.583l6.53,6.583l1.785,1.8
			c0.384,0.386,1.011,0.386,1.394,0C27.993,18.398,27.993,17.766,27.601,17.38z M22.106,16.985l-4.213-4.247l-4.212,4.247
			l-3.006,3.031v4.665c0,0.727,0.587,1.318,1.307,1.318h4.056v-4.239c0-0.726,0.587-1.31,1.307-1.31h1.105
			c0.721,0,1.307,0.584,1.307,1.31V26h4.056c0.712,0,1.3-0.591,1.3-1.318v-4.665L22.106,16.985L22.106,16.985z"/>
	</g>
</g>
<g>
	<path class="st109" d="M51.374,13.213c0.348-0.348,0.348-0.913,0-1.26l-3.69-3.692c-0.347-0.347-0.912-0.347-1.259,0l-1.24,1.24
		l4.95,4.953L51.374,13.213z"/>
	<path class="st109" d="M63.673,24.258l-3.69-3.692c-0.347-0.348-0.912-0.348-1.26,0l-1.24,1.241l4.949,4.952l1.24-1.241
		C64.021,25.171,64.021,24.606,63.673,24.258z"/>
	<path class="st109" d="M56.987,22.303c-0.359,0.359-1.281,0.674-4.661-2.688c-3.38-3.362-3.046-4.305-2.686-4.663l0.103-0.103
		l-4.95-4.952l-0.128,0.128c-0.644,0.645-2.622,4.948,4.84,12.414c7.462,7.465,11.762,5.487,12.407,4.842l0.128-0.127L57.09,22.2
		L56.987,22.303z"/>
</g>
<path class="st109" d="M97.749,22.979l-3.481-3.496c0.131-0.292,0.234-0.6,0.324-0.912h0.008c0.166-0.577,0.258-1.185,0.258-1.818
	c0-3.701-3.015-6.701-6.708-6.701c-3.693,0-6.701,2.999-6.701,6.701c0,0.63,0.088,1.24,0.251,1.818h0.006
	c0.796,2.812,3.38,4.883,6.443,4.883c0.972,0,1.899-0.212,2.737-0.591l3.49,3.489c0.467,0.468,1.08,0.701,1.686,0.701
	c0.614,0,1.227-0.227,1.686-0.694c0.475-0.467,0.701-1.08,0.701-1.694C98.451,24.052,98.224,23.446,97.749,22.979z M92.105,18.571
	c-0.695,1.493-2.203,2.54-3.954,2.54c-1.752,0-3.255-1.047-3.947-2.54h-0.012c-0.255-0.554-0.398-1.17-0.398-1.818
	c0-2.401,1.956-4.358,4.358-4.358c2.401,0,4.366,1.956,4.366,4.358c0,0.648-0.144,1.264-0.4,1.818H92.105z"/>
<g>
	<path class="st109" d="M129.409,19.428l-0.745,0.447c-1.776,1.117-3.552,1.117-5.327,0l-0.744-0.447l-7.357,4.629
		c0.477,1.142,1.626,1.95,2.973,1.95h15.583c1.346,0,2.496-0.807,2.973-1.95L129.409,19.428z"/>
	<path class="st109" d="M137,22.634v-7.514c0-0.189-0.02-0.372-0.053-0.551l-6.333,4.015L137,22.634z"/>
	<path class="st109" d="M121.386,18.585l-6.333-4.015C115.02,14.749,115,14.932,115,15.121v1.662v5.852L121.386,18.585z"/>
	<path class="st109" d="M122.822,17.855c0.057,0,0.057,0,0.057,0.056l0.917,0.559c1.489,0.893,2.921,0.893,4.41,0l0.859-0.559
		c0.058,0,0.115,0,0.115-0.056l7.215-4.558c-0.583-0.785-1.529-1.296-2.602-1.296h-15.583c-1.074,0-2.02,0.511-2.602,1.296
		L122.822,17.855z"/>
</g>
<g>
	<g>
		<path class="st109" d="M27.601,53.38l-0.392-0.395l-8.619-8.691c-0.192-0.194-0.445-0.29-0.698-0.29
			c-0.252,0-0.505,0.097-0.696,0.29l-8.621,8.691L8.184,53.38c-0.383,0.386-0.383,1.018,0,1.406
			c0.196,0.197,0.446,0.291,0.697,0.291c0.25,0,0.508-0.094,0.696-0.291l1.785-1.8l6.53-6.583l6.53,6.583l1.785,1.8
			c0.384,0.386,1.011,0.386,1.394,0C27.993,54.398,27.993,53.766,27.601,53.38z M22.106,52.985l-4.213-4.247l-4.212,4.247
			l-3.006,3.031v4.665c0,0.727,0.587,1.318,1.307,1.318h4.056v-4.239c0-0.726,0.587-1.31,1.307-1.31h1.105
			c0.721,0,1.307,0.584,1.307,1.31V62h4.056c0.712,0,1.3-0.591,1.3-1.318v-4.665L22.106,52.985L22.106,52.985z"/>
	</g>
</g>
<g>
	<path class="st109" d="M51.374,49.213c0.348-0.348,0.348-0.913,0-1.26l-3.69-3.692c-0.347-0.347-0.912-0.347-1.259,0l-1.24,1.24
		l4.95,4.953L51.374,49.213z"/>
	<path class="st109" d="M63.673,60.258l-3.69-3.692c-0.347-0.348-0.912-0.348-1.26,0l-1.24,1.241l4.949,4.952l1.24-1.241
		C64.021,61.171,64.021,60.606,63.673,60.258z"/>
	<path class="st109" d="M56.987,58.303c-0.359,0.359-1.28,0.674-4.661-2.688c-3.38-3.362-3.046-4.305-2.686-4.663l0.103-0.103
		l-4.95-4.952l-0.128,0.128c-0.645,0.645-2.622,4.948,4.84,12.414c7.462,7.465,11.762,5.487,12.407,4.842l0.128-0.127L57.09,58.2
		L56.987,58.303z"/>
</g>
<path class="st109" d="M97.749,58.979l-3.481-3.496c0.131-0.292,0.234-0.6,0.324-0.912h0.008c0.166-0.577,0.258-1.185,0.258-1.818
	c0-3.701-3.015-6.7-6.708-6.7c-3.693,0-6.701,2.999-6.701,6.7c0,0.63,0.088,1.24,0.251,1.818h0.006
	c0.796,2.812,3.38,4.883,6.443,4.883c0.972,0,1.899-0.212,2.737-0.591l3.49,3.489c0.467,0.467,1.08,0.701,1.686,0.701
	c0.614,0,1.227-0.227,1.686-0.694c0.475-0.467,0.701-1.08,0.701-1.694C98.451,60.052,98.224,59.446,97.749,58.979z M92.105,54.571
	c-0.695,1.493-2.203,2.54-3.954,2.54c-1.752,0-3.255-1.047-3.947-2.54h-0.012c-0.255-0.554-0.398-1.17-0.398-1.818
	c0-2.401,1.956-4.357,4.358-4.357c2.401,0,4.366,1.956,4.366,4.357c0,0.648-0.144,1.265-0.4,1.818H92.105z"/>
<g>
	<path class="st109" d="M129.409,55.428l-0.745,0.447c-1.776,1.117-3.552,1.117-5.327,0l-0.744-0.447l-7.357,4.629
		c0.477,1.142,1.626,1.95,2.973,1.95h15.583c1.346,0,2.496-0.808,2.973-1.95L129.409,55.428z"/>
	<path class="st109" d="M137,58.634v-7.514c0-0.188-0.02-0.372-0.053-0.551l-6.333,4.015L137,58.634z"/>
	<path class="st109" d="M121.386,54.585l-6.333-4.015C115.02,50.749,115,50.932,115,51.121v1.662v5.852L121.386,54.585z"/>
	<path class="st109" d="M122.822,53.855c0.057,0,0.057,0,0.057,0.056l0.917,0.559c1.489,0.893,2.921,0.893,4.41,0l0.859-0.559
		c0.058,0,0.115,0,0.115-0.056l7.215-4.558c-0.583-0.785-1.529-1.296-2.602-1.296h-15.583c-1.074,0-2.02,0.511-2.602,1.296
		L122.822,53.855z"/>
</g>
</svg>
