<svg xmlns="http://www.w3.org/2000/svg" width="32" height="32" viewBox="0 0 32 32"><g fill="#C55617"><path d="M11.168 27.976l-.46-.194 10.027-23.88.46.194z"/><path d="M3.883 11.282l.194-.46 23.88 10.027-.194.46z"/><path d="M4.196 21.17l-.19-.464 23.976-9.792.19.463z"/><path d="M10.81 4.16l.464-.19 9.793 23.978-.463.19z"/><g><path d="M15.8 3h.5v25.9h-.5z"/><path d="M3.1 15.9H29v.5H3.1z"/><path d="M7.105 25.257l-.354-.353L25.066 6.59l.354.353z"/><path d="M6.675 7.048l.353-.354 18.314 18.314-.354.354z"/></g><path d="M16 29.2C8.7 29.2 2.8 23.3 2.8 16S8.7 2.8 16 2.8 29.2 8.7 29.2 16 23.3 29.2 16 29.2zm0-25.9C9 3.3 3.3 9 3.3 16 3.3 23 9 28.7 16 28.7S28.7 23 28.7 16C28.7 9 23 3.3 16 3.3z"/></g><path fill="#7F3011" d="M16 30.9C7.8 30.9 1.1 24.2 1.1 16S7.8 1.1 16 1.1 30.9 7.8 30.9 16 24.2 30.9 16 30.9zm0-29.3C8 1.6 1.6 8 1.6 16S8 30.4 16 30.4 30.4 24 30.4 16 24 1.6 16 1.6z"/><path fill="#C55617" d="M10.5 28.7h-.3c-.1 0-.2 0-.2.1l-.3.3v.1l-.3.6v.1c-.1.2 0 .4.1.6 0 .1.1.2.2.2.1.1.2.1.3.1.2 0 .4 0 .6-.1.1-.1.2-.2.2-.3l.3-.7v-.1c0-.2 0-.4-.1-.5-.2-.2-.3-.3-.5-.4zM6 25.6c-.1-.1-.1-.1-.2-.1h-.3c-.1 0-.3.1-.4.2l-.5.5-.1.1c-.1.1-.2.3-.2.5 0 .1 0 .2.1.3.1.1.1.2.2.2.2.1.4.2.6.1.1 0 .3-.1.3-.2l.5-.6s0-.1.1-.1c.1-.2.1-.4.1-.5 0-.1 0-.2-.1-.2.1-.1 0-.1-.1-.2zM3.1 21.1c0-.1-.1-.1-.2-.2-.1 0-.1-.1-.2-.1h-.4-.1l-.7.2h-.1c-.1 0-.2.1-.2.2-.1.1-.1.2-.1.3v.3c0 .1.1.2.1.3.1.2.3.3.5.3h.4l.7-.3s.1 0 .1-.1c.2-.1.3-.3.3-.5v-.3l-.1-.1zM2.1 15.8c0-.1 0-.2-.1-.2 0-.1-.1-.1-.2-.2s-.2-.1-.4-.2H.6.5c-.2 0-.4.1-.5.3.1 0 0 .1 0 .2v.3c0 .2.2.4.3.5.1.1.2.1.4.1h.9c.2 0 .3-.2.4-.3.1-.2.2-.4.1-.5zM3.3 10.5v-.3c0-.1 0-.2-.1-.2l-.3-.3h-.1l-.6-.3h-.1c-.2-.1-.4 0-.6.1-.1 0-.2.1-.2.2 0 0 0 .1-.1.2 0 .2 0 .4.1.6.1.1.2.2.3.2l.7.3h.1c.2 0 .4 0 .5-.1.2-.1.3-.2.4-.4zM6.4 6s.1-.1.1-.2v-.3c0-.1-.1-.3-.2-.4l-.5-.5-.1-.1c-.1-.1-.3-.1-.5-.1-.1 0-.2 0-.3.1-.1 0-.1.1-.2.2-.1.2-.2.4-.1.6 0 .1.1.3.2.3l.6.5s.1 0 .1.1c.2.1.4.1.5.1.1 0 .2 0 .2-.1.1 0 .1-.1.2-.2zM10.9 3.1c.1 0 .1-.1.2-.2 0-.1.1-.1.1-.2v-.4-.1l-.2-.7v-.1c0-.1-.1-.2-.2-.2-.1-.1-.2-.1-.3-.1h-.3c-.1 0-.2.1-.3.1-.2.2-.3.3-.4.5v.4l.3.7s0 .1.1.1c.1.2.3.3.5.3h.3c.1 0 .1 0 .2-.1zM16.2 2.1c.1 0 .2 0 .2-.1.1 0 .1-.1.2-.2s.1-.2.2-.4V.6.5c0-.2-.1-.4-.3-.5 0 .1-.1 0-.2 0H16c-.2 0-.4.2-.5.3-.1.1-.1.2-.1.4v.9c0 .2.2.3.3.4.2.1.4.2.5.1zM21.5 3.3h.3c.1 0 .2 0 .2-.1l.3-.3v-.1l.3-.6v-.1c.1-.2 0-.4-.1-.6 0-.1-.1-.2-.2-.2-.1-.1-.2-.1-.3-.1-.2 0-.4 0-.6.1-.1.1-.2.2-.2.3l-.3.7v.1c0 .2 0 .4.1.5.2.2.3.3.5.4zM26 6.4c.1.1.1.1.2.1h.3c.1 0 .3-.1.4-.2l.5-.5.1-.1c.1-.1.2-.3.2-.5 0-.1 0-.2-.1-.3-.1-.1-.1-.2-.2-.2-.2-.1-.4-.2-.6-.1-.1 0-.3.1-.3.2l-.5.6s0 .1-.1.1c-.1.2-.1.4-.1.5 0 .1 0 .2.1.2-.1.1 0 .1.1.2zM28.9 10.9c0 .1.1.1.2.2.1 0 .1.1.2.1h.5l.7-.2h.1c.1 0 .2-.1.2-.2.1-.1.1-.2.1-.3v-.3c0-.1-.1-.2-.1-.3-.1-.2-.3-.3-.5-.3h-.4l-.7.3s-.1 0-.1.1c-.2.1-.3.3-.3.5v.3l.1.1zM29.9 16.2c0 .1 0 .2.1.2 0 .1.1.1.2.2s.2.1.4.2H31.5c.2 0 .4-.1.5-.3.1-.1.1-.2.1-.3v-.3c0-.2-.2-.4-.3-.5-.1-.1-.2-.1-.4-.1h-.8-.1c-.2 0-.3.2-.4.3-.2.3-.3.5-.2.6zM28.7 21.5v.3c0 .1 0 .2.1.2l.3.3h.1l.6.3h.1c.2.1.4 0 .6-.1.1 0 .2-.1.2-.2.1-.1.1-.2.1-.3 0-.2 0-.4-.1-.6-.1-.1-.2-.2-.3-.2l-.7-.3h-.1c-.2 0-.4 0-.5.1-.2.2-.3.3-.4.5zM25.6 26c-.1.1-.1.1-.1.2v.3c0 .1.1.3.2.4l.5.5.1.1c.1.1.3.2.5.2.1 0 .2 0 .3-.1.1-.1.2-.1.2-.2.1-.2.2-.4.1-.6 0-.1-.1-.3-.2-.3l-.6-.5s-.1 0-.1-.1c-.2-.1-.4-.1-.5-.1-.1 0-.2 0-.2.1-.1-.1-.1 0-.2.1zM21.1 28.9c-.1 0-.1.1-.2.2 0 .1-.1.1-.1.2v.5l.2.7v.1c0 .1.1.2.2.2.1.1.2.1.3.1h.3c.1 0 .2-.1.3-.1.2-.1.3-.3.3-.5v-.4l-.3-.7s0-.1-.1-.1c-.1-.2-.3-.3-.5-.3h-.3l-.1.1zM15.8 29.9c-.1 0-.2 0-.2.1-.1 0-.1.1-.2.2s-.1.2-.2.4V31.5c0 .2.1.4.3.5.1.1.2.1.3.1h.3c.2 0 .4-.2.5-.3.1-.1.1-.2.1-.4v-.8-.1c0-.2-.2-.3-.3-.4-.3-.2-.5-.3-.6-.2z"/></svg>